#!OML:ASF E:\Steps\Project 1\Capture day 1\Session 2\Subject.ASF
:FULLY-SPECIFIED
:DEGREES
330
root -5.8285 15.6935 11.2432 -159.165 3.13419 -180.31
lowerback -28.1781 -0.15158 -5.33764
upperback 1.08591 2.18181 -1.47067
thorax 16.1732 0.718889 2.22162
lowerneck -5.68919 0.456569 1.92043
upperneck 32.8367 -3.66225 -0.526712
head 11.6001 -2.85044 -1.22598
rclavicle 2.19657e-014 -6.44062e-014
rhumerus -30.6395 -8.86251 -81.3241
rradius 45.0712
rwrist -7.78004
rhand 2.67765 -13.1116
rfingers 7.12502
rthumb 28.1525 -41.018
lclavicle 2.19657e-014 -6.44062e-014
lhumerus -36.8824 10.7776 73.2632
lradius 18.7426
lwrist -7.2802
lhand -19.9059 -10.8739
lfingers 7.12502
lthumb 6.43066 19.0085
rfemur -10.7926 7.44212 24.0899
rtibia 15.6276
rfoot -26.4369 -2.37358
rtoes -22.7107
lfemur -47.4963 -9.73652 -6.21953
ltibia 7.81091
lfoot -5.49046 13.5392
ltoes -36.3178
331
root -5.83755 15.662 11.0717 -159.099 3.37405 -180.243
lowerback -28.2081 -0.0843573 -5.29522
upperback 0.950406 2.26896 -1.49068
thorax 16.0233 0.774504 2.21018
lowerneck -6.00204 0.408025 1.66064
upperneck 33.3636 -3.86842 -0.40828
head 11.8832 -2.98597 -1.18804
rclavicle -1.68967e-014 6.12257e-014
rhumerus -30.5666 -8.72293 -81.4069
rradius 45.118
rwrist -7.64536
rhand 2.90698 -13.4147
rfingers 7.12502
rthumb 28.3717 -41.2848
lclavicle -1.68967e-014 6.12257e-014
lhumerus -37.2892 11.3522 72.8088
lradius 18.3806
lwrist -7.81721
lhand -19.8651 -10.9094
lfingers 7.12502
lthumb 6.47006 18.9718
rfemur -10.3366 7.5709 24.0968
rtibia 16.0144
rfoot -26.7452 -2.09603
rtoes -22.1582
lfemur -47.4338 -10.6798 -5.05115
ltibia 6.60888
lfoot -5.69608 14.3125
ltoes -37.7394
332
root -5.85047 15.6318 10.9024 -159.062 3.62835 -180.2
lowerback -28.3987 0.0248391 -5.21748
upperback 0.871737 2.42242 -1.56354
thorax 16.0192 0.858159 2.15176
lowerneck -6.0543 0.455826 1.64422
upperneck 33.5391 -3.85587 -0.368789
head 11.9679 -2.98854 -1.17775
rclavicle 1.28216e-014 1.82882e-014
rhumerus -30.5135 -8.72867 -81.4747
rradius 45.0616
rwrist -7.53791
rhand 2.72693 -13.372
rfingers 7.12502
rthumb 28.1996 -41.2706
lclavicle 1.28216e-014 1.82882e-014
lhumerus -37.5753 11.6438 72.474
lradius 17.9439
lwrist -8.10803
lhand -19.7751 -11.0121
lfingers 7.12502
lthumb 6.55695 18.8664
rfemur -9.78547 7.76859 24.0481
rtibia 16.1906
rfoot -26.8845 -1.87079
rtoes -21.8092
lfemur -47.3908 -11.3247 -4.34012
ltibia 5.8478
lfoot -5.67409 15.1948
ltoes -39.8851
333
root -5.86385 15.6094 10.7408 -158.997 3.81115 -180.272
lowerback -28.7481 0.0685035 -5.25607
upperback 0.91311 2.54065 -1.63962
thorax 16.2319 0.904575 2.14469
lowerneck -5.98431 0.511503 1.63169
upperneck 33.4597 -3.76815 -0.308705
head 11.9234 -2.94086 -1.13835
rclavicle -9.34288e-015 3.18055e-014
rhumerus -30.2513 -8.85367 -81.4943
rradius 44.9411
rwrist -7.41999
rhand 2.41447 -13.2564
rfingers 7.12502
rthumb 27.9009 -41.2039
lclavicle -9.34288e-015 3.18055e-014
lhumerus -37.5785 12.1046 72.164
lradius 17.3661
lwrist -8.52016
lhand -19.8585 -10.8114
lfingers 7.12502
lthumb 6.47643 19.0696
rfemur -9.31856 7.96459 23.899
rtibia 16.3327
rfoot -26.9779 -1.97924
rtoes -22.8375
lfemur -47.4758 -11.3207 -4.47418
ltibia 5.72985
lfoot -5.84815 15.5513
ltoes -39.6926
334
root -5.87609 15.5912 10.5782 -158.933 3.84447 -180.37
lowerback -28.6221 -0.0321333 -5.40161
upperback 0.748177 2.44859 -1.59604
thorax 15.9716 0.869115 2.23059
lowerneck -6.20217 0.639622 1.4391
upperneck 33.6821 -3.57294 -0.336155
head 12.0629 -2.88649 -1.10527
rclavicle -5.36719e-015 -2.94201e-014
rhumerus -30.2199 -8.75033 -81.4116
rradius 44.8031
rwrist -7.22026
rhand 2.16271 -13.1499
rfingers 7.12502
rthumb 27.6602 -41.1363
lclavicle -5.36719e-015 -2.94201e-014
lhumerus -37.8494 13.0206 71.6944
lradius 16.6377
lwrist -9.39597
lhand -20.0164 -10.6197
lfingers 7.12502
lthumb 6.32399 19.2659
rfemur -8.95811 8.11023 23.7875
rtibia 16.7887
rfoot -26.9405 -2.235
rtoes -24.9462
lfemur -47.6004 -10.7453 -5.30767
ltibia 6.18354
lfoot -6.25157 15.0499
ltoes -37.6332
335
root -5.8943 15.5665 10.4026 -158.895 4.08191 -180.433
lowerback -28.7604 0.141283 -5.39931
upperback 0.493616 2.74071 -1.76981
thorax 15.7264 1.03379 2.15539
lowerneck -5.78035 0.547406 1.52813
upperneck 33.7105 -3.85044 -0.163477
head 11.9904 -3.00805 -1.08443
rclavicle -1.0635e-014 -2.14687e-014
rhumerus -30.6572 -9.12526 -81.3738
rradius 44.6339
rwrist -7.08812
rhand 2.19336 -12.9913
rfingers 7.12502
rthumb 27.6895 -40.973
lclavicle -1.0635e-014 -2.14687e-014
lhumerus -38.2834 13.2966 71.0546
lradius 15.9169
lwrist -10.5075
lhand -19.9257 -10.7972
lfingers 7.12502
lthumb 6.4115 19.0857
rfemur -8.61354 8.21592 23.5641
rtibia 17.4165
rfoot -26.8778 -1.86976
rtoes -24.2475
lfemur -47.5976 -10.3806 -5.94481
ltibia 6.82686
lfoot -6.75976 14.916
ltoes -35.9162
336
root -5.90965 15.5443 10.2312 -158.85 4.31234 -180.529
lowerback -28.8709 0.139244 -5.52493
upperback 0.667932 2.79134 -1.81341
thorax 15.9787 1.02965 2.20073
lowerneck -6.61802 0.503629 1.45745
upperneck 33.7929 -3.79869 -0.21198
head 12.1966 -2.95545 -1.09875
rclavicle -2.06736e-014 5.40694e-014
rhumerus -29.8518 -9.20129 -81.5281
rradius 44.294
rwrist -6.99291
rhand 2.28183 -12.9064
rfingers 7.12502
rthumb 27.7741 -40.8744
lclavicle -2.06736e-014 5.40694e-014
lhumerus -38.0142 14.6488 70.4096
lradius 15.283
lwrist -11.9158
lhand -19.7964 -10.7766
lfingers 7.12502
lthumb 6.53636 19.1026
rfemur -8.2951 8.26879 23.2939
rtibia 18.033
rfoot -26.8847 -1.44589
rtoes -22.5521
lfemur -47.6655 -9.81287 -6.85015
ltibia 7.82695
lfoot -7.13865 14.5905
ltoes -34.8386
